<svg height='100px' width='100px'  fill="#4f4b4a" xmlns="http://www.w3.org/2000/svg" xmlns:xlink="http://www.w3.org/1999/xlink" xml:space="preserve" version="1.1" style="shape-rendering:geometricPrecision;text-rendering:geometricPrecision;image-rendering:optimizeQuality;" viewBox="0 0 847 847" x="0px" y="0px" fill-rule="evenodd" clip-rule="evenodd"><defs><style type="text/css">
   
    .fil0 {fill:#4f4b4a;fill-rule:nonzero}
   
  </style></defs><g><path class="fil0" d="M156 639l275 0c53,-23 58,-95 71,-147l-417 0c12,50 17,124 71,147zm119 -416c-2,-17 24,-21 27,-4 22,126 -103,132 -107,227 -1,18 -27,17 -27,-1 5,-108 126,-114 107,-222zm152 106c-3,-17 23,-22 26,-4 12,70 -54,74 -56,121 -1,18 -28,17 -27,-1 2,-60 66,-64 57,-116zm-63 -52c-3,-18 24,-22 27,-5 17,98 -79,103 -82,174 0,18 -27,17 -26,-1 3,-84 95,-88 81,-168zm145 250c-3,17 -7,34 -12,51l27 0c75,-21 73,-81 205,-85 19,-5 29,-16 33,-35 -88,-1 -175,29 -253,69z"></path></g></svg>