<svg height='100px' width='100px'  fill="#4f4b4a" xmlns="http://www.w3.org/2000/svg" xmlns:xlink="http://www.w3.org/1999/xlink" version="1.1" x="0px" y="0px" viewBox="4 4 40 40" style="enable-background:new 0 0 48 48;" xml:space="preserve"><path d="M41.7714844,18.5385742l-17.3339844-8.4375c-0.2802734-0.137207-0.6069336-0.1347656-0.8847656,0.0043945  L6.21875,18.7714844c-0.3388672,0.1694336-0.5527344,0.515625-0.5527344,0.8945312s0.2138672,0.7250977,0.5527344,0.8945312  L10,22.4511719v5.7597656l-2.0708008,8.28125c-0.1337891,0.5351562,0.1914062,1.078125,0.7265625,1.2119141  c0.7475586,0.1884766,1.5004883,0.2841797,2.2416992,0.2919922c0.0029297,0,0.0053711,0.0019531,0.0083008,0.0019531  C10.9306641,38,10.9746094,38.0019531,11,38.0019531L11.0390625,38c0.0014648,0,0.0029297,0,0.0039062,0  c0.7578125-0.0029297,1.5322266-0.1025391,2.3012695-0.2958984c0.5351562-0.1337891,0.8603516-0.6767578,0.7265625-1.2119141  L12,28.2109375v-4.7592773l2.3339844,1.1669922v4.9985352c0,3.4853516,4.2456055,6.2158203,9.6660156,6.2158203  c5.4199219,0,9.6660156-2.7304688,9.6660156-6.2158203v-5.1201172l8.125-4.1699219  c0.3369141-0.1728516,0.546875-0.5214844,0.5429688-0.9003906C42.3300781,19.0483398,42.1123047,18.7041016,41.7714844,18.5385742z   M31.6660156,29.6171875c0,2.2851562-3.5107422,4.2158203-7.6660156,4.2158203s-7.6660156-1.9306641-7.6660156-4.2158203v-3.9980469  l7.21875,3.609375C23.6933594,29.2988281,23.8466797,29.3339844,24,29.3339844c0.1567383,0,0.3134766-0.0371094,0.456543-0.1103516  l7.2094727-3.7001953V29.6171875z M23.9941406,27.2128906l-9.796875-4.8989258l9.9672852-1.6606445  c0.5444336-0.0908203,0.9125977-0.605957,0.8217773-1.1508789c-0.0908203-0.5439453-0.6035156-0.9140625-1.1508789-0.8217773  L11.15625,20.793457l-2.2543945-1.1274414l15.1040039-7.5507812l15.0917969,7.3461914L23.9941406,27.2128906z"></path></svg>