<svg height='100px' width='100px'  fill="#4f4b4a" xmlns="http://www.w3.org/2000/svg" xmlns:xlink="http://www.w3.org/1999/xlink" version="1.1" x="0px" y="0px" viewBox="0 0 512 512" style="enable-background:new 0 0 512 512;" xml:space="preserve"><g><path d="M428.5,282H425v-64.1c0-94.3-75.8-171-169-171s-169,76.7-169,171V282h-3.5C54.8,282,31,305.1,31,334v78.7   c0,28.9,23.8,52.3,52.5,52.3h53.1c8.3,0,15.4-6.6,15.4-14.9V296.6c0-8.3-7.1-14.6-15.4-14.6H117v-64.1c0-77.8,62.3-141,139-141   s139,63.3,139,141V282h-19.6c-8.3,0-15.4,6.3-15.4,14.6v153.5c0,8.3,7.1,14.9,15.4,14.9h53.1c28.7,0,51.5-23.4,51.5-52.3V334   C480,305.1,457.2,282,428.5,282z M122,435H83.5c-12.1,0-22.5-9.9-22.5-22.3V334c0-12.4,10.4-22,22.5-22H122V435z M450,412.7   c0,12.4-9.4,22.3-21.5,22.3H390V312h38.5c12.1,0,21.5,9.7,21.5,22V412.7z"></path></g></svg>