<svg height='100px' width='100px'  fill="#4f4b4a" xmlns="http://www.w3.org/2000/svg" xmlns:xlink="http://www.w3.org/1999/xlink" version="1.1" x="0px" y="0px" viewBox="0 0 1024 1024" style="enable-background:new 0 0 1024 1024;" xml:space="preserve"><g><g><g><path d="M873.3,319.6c0,16.9,0,33.7,0,50.6c0,40.4,0,80.9,0,121.3c0,48.6,0,97.3,0,145.9c0,42,0,84,0,125.9     c0,19.9,0.2,39.9,0,59.8c0,1.6-0.1,3.2-0.2,4.8c0.4-2.7,0.7-5.3,1.1-8c-0.4,3.2-1.2,6.1-2.3,9.1c1-2.4,2-4.8,3-7.2     c-0.9,2.1-1.9,3.9-3,5.9c-2.2,4,4.4-4.7,2-2.4c-0.8,0.7-1.4,1.7-2.2,2.4c-0.6,0.6-1.3,1.2-1.9,1.8c-3.4,3.3,4.8-3,2.4-1.9     c-2.2,1-4.2,2.4-6.4,3.4c2.4-1,4.8-2,7.2-3c-3,1.1-6,1.9-9.1,2.3c2.7-0.4,5.3-0.7,8-1.1c-7.4,0.7-15,0.2-22.4,0.2     c-17.1,0-34.2,0-51.3,0c-25.5,0-51,0-76.4,0c-31.3,0-62.6,0-94,0c-34.2,0-68.4,0-102.6,0c-34.7,0-69.4,0-104.1,0     c-32.2,0-64.3,0-96.5,0c-27.3,0-54.5,0-81.8,0c-19.4,0-38.8,0-58.2,0c-9,0-18.1,0-27.1,0c-1.7,0-3.4-0.1-5.1-0.2     c2.7,0.4,5.3,0.7,8,1.1c-3.2-0.4-6.1-1.2-9.1-2.3c2.4,1,4.8,2,7.2,3c-2.1-0.9-3.9-1.9-5.9-3c-4-2.2,4.7,4.4,2.4,2     c-0.7-0.8-1.7-1.4-2.4-2.2c-0.6-0.6-1.2-1.3-1.8-1.9c-3.3-3.4,3,4.8,1.9,2.4c-1-2.2-2.4-4.2-3.4-6.4c1,2.4,2,4.8,3,7.2     c-1.1-3-1.9-6-2.3-9.1c0.4,2.7,0.7,5.3,1.1,8c-0.5-5.6-0.2-11.4-0.2-17c0-12.1,0-24.1,0-36.2c0-40.3,0-80.7,0-121     c0-48.9,0-97.9,0-146.8c0-42.2,0-84.4,0-126.6c0-20-0.2-40.1,0-60.1c0-1.6,0.1-3.2,0.2-4.8c-0.4,2.7-0.7,5.3-1.1,8     c0.4-3.2,1.2-6.1,2.3-9.1c-1,2.4-2,4.8-3,7.2c0.9-2.1,1.9-3.9,3-5.9c2.2-4-4.4,4.7-2,2.4c0.8-0.7,1.4-1.7,2.2-2.4     c0.6-0.6,1.3-1.2,1.9-1.8c3.4-3.3-4.8,3-2.4,1.9c2.2-1,4.2-2.4,6.4-3.4c-2.4,1-4.8,2-7.2,3c3-1.1,6-1.9,9.1-2.3     c-2.7,0.4-5.3,0.7-8,1.1c7.4-0.7,15-0.2,22.4-0.2c17.1,0,34.2,0,51.3,0c25.5,0,51,0,76.4,0c31.3,0,62.6,0,94,0     c34.2,0,68.4,0,102.6,0c34.7,0,69.4,0,104.1,0c32.2,0,64.3,0,96.5,0c27.3,0,54.5,0,81.8,0c19.4,0,38.8,0,58.2,0     c9,0,18.1,0,27.1,0c1.7,0,3.4,0.1,5.1,0.2c-2.7-0.4-5.3-0.7-8-1.1c3.2,0.4,6.1,1.2,9.1,2.3c-2.4-1-4.8-2-7.2-3     c2.1,0.9,3.9,1.9,5.9,3c4,2.2-4.7-4.4-2.4-2c0.7,0.8,1.7,1.4,2.4,2.2c0.6,0.6,1.2,1.3,1.8,1.9c3.3,3.4-3-4.8-1.9-2.4     c1,2.2,2.4,4.2,3.4,6.4c-1-2.4-2-4.8-3-7.2c1.1,3,1.9,6,2.3,9.1c-0.4-2.7-0.7-5.3-1.1-8C873.2,316.8,873.3,318.2,873.3,319.6     c0.3,15.7,13.6,30.7,30,30c16-0.7,30.3-13.2,30-30c-0.7-35.7-28.6-64.2-64.3-65.7c-1.7-0.1-3.5,0-5.3,0c-9.9,0-19.8,0-29.7,0     c-42,0-83.9,0-125.9,0c-59.2,0-118.4,0-177.6,0c-60.4,0-120.9,0-181.3,0c-46.8,0-93.7,0-140.5,0c-13.2,0-26.5,0-39.7,0     c-10.9,0-22-0.5-32.5,3.2c-27.2,9.3-45.3,34-45.7,62.8c0,2.6,0,5.1,0,7.7c0,14.6,0,29.1,0,43.7c0,53.1,0,106.2,0,159.2     c0,60,0,119.9,0,179.9c0,36.1,0,72.2,0,108.3c0,2.6-0.1,5.3,0.1,7.9c2.2,35,30.4,62.3,65.6,62.9c5.2,0.1,10.4,0,15.6,0     c35.7,0,71.5,0,107.2,0c56.2,0,112.4,0,168.6,0c61.8,0,123.6,0,185.4,0c51.4,0,102.7,0,154.1,0c26,0,52,0,78,0     c10.8,0,20.8-2.3,30.7-6.6c23-10.2,36.9-34.7,37.3-59.3c0.1-8.6,0-17.1,0-25.7c0-47.1,0-94.2,0-141.2c0-61,0-122,0-183     c0-44.7,0-89.4,0-134.1c0-6.6,0-13.3,0-19.9c0-15.7-13.8-30.7-30-30C887,290.3,873.3,302.7,873.3,319.6z"></path></g></g><g><g><path d="M630.7,193.2c0,26.4,0,52.8,0,79.2c0,3.8,0,7.7,0,11.5c10-10,20-20,30-30c-33.7,0-67.4,0-101.1,0     c-53.2,0-106.5,0-159.7,0c-12.2,0-24.4,0-36.6,0c10,10,20,20,30,30c0-27,0-53.9,0-80.9c0-4.6-0.3-9.3,0.3-13.9     c-0.4,2.7-0.7,5.3-1.1,8c0.4-2.2,0.9-4.3,1.7-6.4c-1,2.4-2,4.8-3,7.2c0.7-1.6,1.5-3.1,2.4-4.6c2.2-4.1-5.7,6-0.7,1     s-5.2,2.8-1,0.7c1.6-0.8,3-1.7,4.6-2.4c-2.4,1-4.8,2-7.2,3c2.1-0.8,4.2-1.3,6.4-1.7c-2.7,0.4-5.3,0.7-8,1.1     c8.9-1.1,18.2-0.3,27.1-0.3c19.1,0,38.3,0,57.4,0c43.8,0,87.6,0,131.4,0c10.7,0,21.9-1,32.6,0.3c-2.7-0.4-5.3-0.7-8-1.1     c2.2,0.4,4.3,0.9,6.4,1.7c-2.4-1-4.8-2-7.2-3c1.6,0.7,3.1,1.5,4.6,2.4c4.1,2.2-6-5.7-1-0.7c5,5-2.8-5.2-0.7-1     c0.8,1.6,1.7,3,2.4,4.6c-1-2.4-2-4.8-3-7.2c0.8,2.1,1.3,4.2,1.7,6.4c-0.4-2.7-0.7-5.3-1.1-8C630.6,190.4,630.7,191.8,630.7,193.2     c0.4,15.7,13.5,30.7,30,30c15.9-0.7,30.4-13.2,30-30c-0.8-33.1-27.1-58.5-60.1-58.6c-8,0-16,0-24,0c-33.2,0-66.4,0-99.6,0     c-32,0-64,0-96,0c-6.3,0-12.6-0.1-18.9,0c-33.1,0.6-58.7,27-58.8,60c-0.1,28.9,0,57.8,0,86.7c0,0.9,0,1.8,0,2.6     c0,16.2,13.7,30,30,30c33.7,0,67.4,0,101.1,0c53.2,0,106.5,0,159.7,0c12.2,0,24.4,0,36.6,0c16.2,0,30-13.7,30-30     c0-26.4,0-52.8,0-79.2c0-3.8,0-7.7,0-11.5c0-15.7-13.8-30.7-30-30C644.5,163.9,630.7,176.3,630.7,193.2z"></path></g></g><g><g><path d="M873.3,319.6c0,35.1,0,70.2,0,105.3c0,7.1,0.2,14.2-0.7,21.3c0.4-2.7,0.7-5.3,1.1-8     c-1,7.1-2.9,14-5.6,20.6c1-2.4,2-4.8,3-7.2c-2,4.6-4.3,9.1-7.1,13.3c-0.7,1.1-1.5,2.1-2.2,3.2c-1.9,2.9,4.9-6,1.9-2.5     c-1.7,2-3.4,3.9-5.2,5.8c-1.7,1.7-3.5,3.3-5.3,4.8c-4.1,3.6,2.5-1.7,2.5-1.9c0,0.4-2.6,1.9-3.2,2.3c-4.4,2.9-9,5.4-13.8,7.5     c2.4-1,4.8-2,7.2-3c-6.6,2.7-13.5,4.6-20.6,5.6c2.7-0.4,5.3-0.7,8-1.1c-10,1.3-20.4,0.7-30.5,0.7c-18.5,0-37,0-55.5,0     c-43.3,0-86.7,0-130,0c-10,0-20,0-30,0c10,10,20,20,30,30c0-8.1,0-16.1,0-24.2c0-10.4,1.2-22.3-2.2-32.2     c-7-20.6-25.4-33.1-47-33.1c-6.6,0-13.2,0-19.9,0c-21.9,0-43.7,0-65.6,0c-7.8,0-15.6,0-23.4,0c-13.9,0-27.3,3.3-37.7,13.4     c-9.4,9.1-14.1,21.7-14.2,34.6c-0.1,4.5,0,9,0,13.5c0,9.3,0,18.7,0,28c10-10,20-20,30-30c-27.5,0-55,0-82.5,0     c-42.6,0-85.2,0-127.8,0c-11.8,0-24,0.7-35.7-0.7c2.7,0.4,5.3,0.7,8,1.1c-7.1-1-14-2.9-20.6-5.6c2.4,1,4.8,2,7.2,3     c-4.6-2-9.1-4.3-13.3-7.1c-1.1-0.7-2.1-1.5-3.2-2.2c-2.9-1.9,6,4.9,2.5,1.9c-2-1.7-3.9-3.4-5.8-5.2c-1.7-1.7-3.3-3.5-4.8-5.3     c-3.6-4.1,1.7,2.5,1.9,2.5c-0.4,0-1.9-2.6-2.3-3.2c-2.9-4.4-5.4-9-7.5-13.8c1,2.4,2,4.8,3,7.2c-2.7-6.6-4.6-13.5-5.6-20.6     c0.4,2.7,0.7,5.3,1.1,8c-1.9-15.2-0.7-31.2-0.7-46.4c0-22,0-44,0-66c0-6.1-0.3-12.3,0.2-18.3c-0.4,2.7-0.7,5.3-1.1,8     c0.4-3.2,1.2-6.1,2.3-9.1c-1,2.4-2,4.8-3,7.2c0.9-2.1,1.9-3.9,3-5.9c2.2-4-4.4,4.7-2,2.4c0.8-0.7,1.4-1.7,2.2-2.4     c0.6-0.6,1.3-1.2,1.9-1.8c3.4-3.3-4.8,3-2.4,1.9c2.2-1,4.2-2.4,6.4-3.4c-2.4,1-4.8,2-7.2,3c3-1.1,6-1.9,9.1-2.3     c-2.7,0.4-5.3,0.7-8,1.1c7.4-0.7,15-0.2,22.4-0.2c17.1,0,34.2,0,51.3,0c25.5,0,51,0,76.4,0c31.3,0,62.6,0,94,0     c34.2,0,68.4,0,102.6,0c34.7,0,69.4,0,104.1,0c32.2,0,64.3,0,96.5,0c27.3,0,54.5,0,81.8,0c19.4,0,38.8,0,58.2,0     c9,0,18.1,0,27.1,0c1.7,0,3.4,0.1,5.1,0.2c-2.7-0.4-5.3-0.7-8-1.1c3.2,0.4,6.1,1.2,9.1,2.3c-2.4-1-4.8-2-7.2-3     c2.1,0.9,3.9,1.9,5.9,3c4,2.2-4.7-4.4-2.4-2c0.7,0.8,1.7,1.4,2.4,2.2c0.6,0.6,1.2,1.3,1.8,1.9c3.3,3.4-3-4.8-1.9-2.4     c1,2.2,2.4,4.2,3.4,6.4c-1-2.4-2-4.8-3-7.2c1.1,3,1.9,6,2.3,9.1c-0.4-2.7-0.7-5.3-1.1-8C873.2,316.8,873.3,318.2,873.3,319.6     c0.3,15.7,13.6,30.7,30,30c16-0.7,30.3-13.2,30-30c-0.6-30.5-22.5-59.7-53.6-64.4c-5.2-0.8-10-1.3-15.1-1.3c-8.3,0-16.6,0-24.9,0     c-36.9,0-73.9,0-110.8,0c-53.5,0-107.1,0-160.6,0c-57.6,0-115.2,0-172.8,0c-49.1,0-98.2,0-147.3,0c-28.1,0-56.1,0-84.2,0     c-2.3,0-4.5,0-6.8,0c-17.2,0.1-32.4,6.3-45.4,17.5C97,284.2,90.7,303.9,90.7,323c0,10,0,20.1,0,30.1c0,25.2,0,50.4,0,75.5     c0,13,0.8,26.1,4.7,38.6c7.8,25,23.6,45.5,44.9,60.4c21.9,15.3,47.6,18.7,73.5,18.7c22,0,43.9,0,65.9,0c49.3,0,98.6,0,147.8,0     c3.1,0,6.3,0,9.4,0c16.2,0,30-13.7,30-30c0-7.4,0-14.8,0-22.2c0-7.5-0.7-15.4,0.2-22.8c-0.4,2.7-0.7,5.3-1.1,8     c0.3-1.3,0.6-2.5,1-3.7c-1,2.4-2,4.8-3,7.2c0.3-0.8,0.8-1.5,1.1-2.3c1.8-4-4.4,4.8-2,2.6c1.7-1.6-5.4,2.8-3.2,2.4     c0.8-0.2,2.1-1.1,2.8-1.4c-2.4,1-4.8,2-7.2,3c1.2-0.4,2.4-0.8,3.7-1c-2.7,0.4-5.3,0.7-8,1.1c4.5-0.5,9.1-0.2,13.6-0.2     c9.3,0,18.6,0,27.9,0c21.2,0,42.4,0,63.6,0c5.4,0,10.9-0.4,16.3,0.2c-2.7-0.4-5.3-0.7-8-1.1c1.4,0.3,2.6,0.6,3.9,1.1     c-2.4-1-4.8-2-7.2-3c0.8,0.3,1.6,0.7,2.3,1.2c-4.2-3.5-5.2-4.3-3-2.2c2,2.2,1.3,1.2-2.2-3c0.5,0.8,0.9,1.5,1.2,2.3     c-1-2.4-2-4.8-3-7.2c0.5,1.3,0.8,2.5,1.1,3.9c-0.4-2.7-0.7-5.3-1.1-8c0.9,7.5,0.2,15.4,0.2,23c0,7.4,0,14.8,0,22.2     c0,16.2,13.7,30,30,30c21.9,0,43.8,0,65.7,0c39.1,0,78.1,0,117.2,0c13.7,0,27.5,0,41.2,0c13,0,25.8-0.3,38.6-3.5     c33.5-8.3,61.3-33.1,74.7-64.6c7.6-18.1,9-36.7,9-56c0-33.5,0-66.9,0-100.4c0-0.8,0-1.6,0-2.4c0-15.7-13.8-30.7-30-30     C887,290.3,873.3,302.8,873.3,319.6z"></path></g></g><g><g><path d="M557,474c0,25.6,0,51.3,0,76.9c0,4.2,0.3,8.5-0.2,12.6c0.4-2.7,0.7-5.3,1.1-8c-0.3,1.4-0.6,2.6-1.1,3.9     c1-2.4,2-4.8,3-7.2c-0.3,0.8-0.7,1.6-1.2,2.3c3.5-4.2,4.3-5.2,2.2-3c-2.2,2-1.2,1.3,3-2.2c-0.8,0.5-1.5,0.9-2.3,1.2     c2.4-1,4.8-2,7.2-3c-1.3,0.5-2.5,0.8-3.9,1.1c2.7-0.4,5.3-0.7,8-1.1c-4.5,0.5-9.2,0.2-13.7,0.2c-9.3,0-18.6,0-27.9,0     c-21.2,0-42.4,0-63.6,0c-5.3,0-10.8,0.4-16.1-0.2c2.7,0.4,5.3,0.7,8,1.1c-1.3-0.3-2.5-0.6-3.7-1c2.4,1,4.8,2,7.2,3     c-0.8-0.3-1.5-0.8-2.3-1.1c-4-1.8,4.8,4.4,2.6,2c-1.6-1.7,2.8,5.4,2.4,3.2c-0.2-0.8-1.1-2.1-1.4-2.8c1,2.4,2,4.8,3,7.2     c-0.4-1.2-0.8-2.4-1-3.7c0.4,2.7,0.7,5.3,1.1,8c-1.2-10.3-0.2-21.1-0.2-31.4c0-15.9,0-31.9,0-47.8c0-4.2-0.3-8.6,0.2-12.8     c-0.4,2.7-0.7,5.3-1.1,8c0.3-1.3,0.6-2.5,1-3.7c-1,2.4-2,4.8-3,7.2c0.3-0.8,0.8-1.5,1.1-2.3c1.8-4-4.4,4.8-2,2.6     c1.7-1.6-5.4,2.8-3.2,2.4c0.8-0.2,2.1-1.1,2.8-1.4c-2.4,1-4.8,2-7.2,3c1.2-0.4,2.4-0.8,3.7-1c-2.7,0.4-5.3,0.7-8,1.1     c4.5-0.5,9.1-0.2,13.6-0.2c9.3,0,18.6,0,27.9,0c21.2,0,42.4,0,63.6,0c5.4,0,10.9-0.4,16.3,0.2c-2.7-0.4-5.3-0.7-8-1.1     c1.4,0.3,2.6,0.6,3.9,1.1c-2.4-1-4.8-2-7.2-3c0.8,0.3,1.6,0.7,2.3,1.2c-4.2-3.5-5.2-4.3-3-2.2c2,2.2,1.3,1.2-2.2-3     c0.5,0.8,0.9,1.5,1.2,2.3c-1-2.4-2-4.8-3-7.2c0.5,1.3,0.8,2.5,1.1,3.9c-0.4-2.7-0.7-5.3-1.1-8C556.9,472.2,557,473.1,557,474     c0.6,15.7,13.3,30.7,30,30c15.7-0.7,30.7-13.2,30-30c-1.1-26.5-21.3-46.8-48-47.1c-5.9-0.1-11.7,0-17.6,0c-21.9,0-43.7,0-65.6,0     c-18,0-40.8-3-56.6,7.1c-14,8.9-21.7,23.6-22.3,40c-0.1,1.5,0,3,0,4.5c0,8.7,0,17.5,0,26.2c0,18.4-0.2,36.7,0,55.1     c0.3,26.2,20.1,47.2,46.4,48.1c4.1,0.1,8.1,0,12.2,0c21.1,0,42.1,0,63.2,0c13.7,0,27.5,0.5,41.2,0c26.7-0.9,46.8-21.6,47.1-48.2     c0.1-7.2,0-14.4,0-21.6c0-20,0-40,0-60c0-1.3,0-2.7,0-4c0-15.7-13.8-30.7-30-30C570.7,444.7,557,457.2,557,474z"></path></g></g></g></svg>