<svg height='100px' width='100px'  fill="#4f4b4a" xmlns="http://www.w3.org/2000/svg" xmlns:xlink="http://www.w3.org/1999/xlink" version="1.1" x="0px" y="0px" viewBox="0 0 1024 1024" style="enable-background:new 0 0 1024 1024;" xml:space="preserve"><g><g><g><path d="M783,335.7c0,26.9,0,53.9,0,80.8c10-10,20-20,30-30c-14.3,0-28.5,0-42.8,0c-35.4,0-70.8,0-106.2,0     c-45.8,0-91.6,0-137.4,0c-45.5,0-91,0-136.5,0c-34.5,0-69,0-103.5,0c-9.8,0-19.6,0-29.4,0c-9,0-17.8-0.1-26.7,2.5     c-21.6,6.3-37.7,23.1-44.3,44.3c-0.6,1.9-1.1,3.8-1.7,5.8c-3.3,11.1-6.6,22.2-9.9,33.3c-11.8,39.9-23.7,79.7-35.5,119.6     c-12.6,42.6-25.3,85.1-37.9,127.7c-5.8,19.6-12,39.2-17.5,58.9c-7.9,28.4,4.3,56.7,28.3,72.8c10.1-17.3,20.2-34.5,30.3-51.8     c-2.3-1.2-4.8-3.7-7.2-4.4c1.2,0.3,6,5,2.3,1.6c-1-0.9-2-1.9-3-2.9c-0.8-0.8-1.5-1.8-2.3-2.6c5.4,5,3.1,4.2,1.4,1.5     c-1.5-2.4-2.8-4.9-4-7.5c1,2.4,2,4.8,3,7.2c-1.7-4-2.8-8.1-3.5-12.4c0.4,2.7,0.7,5.3,1.1,8c-0.9-6.7-0.5-13.7-0.5-20.5     c0-12.9,0-25.7,0-38.6c0-43.1,0-86.3,0-129.4c0-52.3,0-104.5,0-156.8c0-45,0-90,0-135c0-21.2-0.2-42.5,0-63.7     c0-2.5,0.2-5,0.5-7.5c-0.4,2.7-0.7,5.3-1.1,8c0.7-4.5,1.9-8.7,3.6-12.9c-1,2.4-2,4.8-3,7.2c1.3-2.8,2.7-5.5,4.4-8.1     c1.7-2.6,4-3.4-1.6,1.9c1.1-1,2-2.3,3.1-3.4c0.3-0.3,3.1-3.2,3.4-3.1c-0.2-0.1-7.2,5.1-1.9,1.6c2.6-1.7,5.3-3.2,8.1-4.4     c-2.4,1-4.8,2-7.2,3c4.2-1.7,8.4-2.9,12.9-3.6c-2.7,0.4-5.3,0.7-8,1.1c6.6-0.8,13.3-0.5,19.9-0.5c12,0,24,0,36.1,0     c27.8,0,55.7,0,83.5,0c7.1,0,14.4-0.5,21.5,0.2c-2.7-0.4-5.3-0.7-8-1.1c2,0.4,3.9,0.9,5.8,1.7c-2.4-1-4.8-2-7.2-3     c0.3,0.2,2.1,1.4,2.7,1.5c-3.3-0.4-5.2-4.6-2-1.2c0.2,0.3,0.4,0.5,0.7,0.7c0.4,0.5,0.8,1,1.2,1.4c1.8,2.1,3.7,4.3,5.5,6.4     c6.5,7.6,13,15.2,19.5,22.8c12.6,14.7,25.2,29.4,37.7,44.1c10.1,11.8,24.1,18.3,39.6,18.7c1.7,0.1,3.5,0,5.2,0c11,0,22,0,33,0     c40.5,0,81,0,121.5,0c44.4,0,88.8,0,133.2,0c23.3,0,46.6-0.2,69.9,0c2.5,0,5,0.2,7.5,0.5c-2.7-0.4-5.3-0.7-8-1.1     c4.5,0.7,8.7,1.9,12.9,3.6c-2.4-1-4.8-2-7.2-3c2.8,1.3,5.5,2.7,8.1,4.4c2.6,1.7,3.4,4-1.9-1.6c1,1.1,2.3,2,3.4,3.1     c0.3,0.3,3.2,3.1,3.1,3.4c0.1-0.2-5.1-7.2-1.6-1.9c1.7,2.6,3.2,5.3,4.4,8.1c-1-2.4-2-4.8-3-7.2c1.7,4.2,2.9,8.4,3.6,12.9     c-0.4-2.7-0.7-5.3-1.1-8C782.8,331.1,783,333.4,783,335.7c0.2,15.7,13.6,30.7,30,30c16.1-0.7,30.2-13.2,30-30     c-0.3-20.4-7.8-39.1-21.3-54.3c-13.4-15.2-32.3-23-52-25.4c-5.7-0.7-11.5-0.5-17.2-0.5c-25.8,0-51.6,0-77.3,0     c-38.3,0-76.7,0-115,0c-35.7,0-71.3,0-107,0c-17.7,0-35.5,0.2-53.2,0c-1.2,0-2.4-0.1-3.7-0.2c2.7,0.4,5.3,0.7,8,1.1     c-2-0.4-3.9-0.9-5.8-1.7c2.4,1,4.8,2,7.2,3c-0.3-0.2-2.1-1.4-2.7-1.5c3.6,0.4,4.9,4.4,2.5,1.8c-0.4-0.4-0.8-0.8-1.1-1.2     c-0.3-0.3-0.6-0.7-0.9-1.1c-1.5-1.7-3-3.5-4.5-5.2c-5.5-6.4-11-12.8-16.5-19.3c-12.6-14.7-25.2-29.5-37.8-44.2     c-2.9-3.4-5.8-7.2-9.2-10.2c-10.8-9.4-23.6-13.5-37.7-13.5c-14.4,0-28.7,0-43.1,0c-34.3,0-68.5-0.1-102.8,0     c-13.1,0-25,2.9-36.9,8.2c-19.1,8.5-32.4,25.3-40.1,44.2c-4.3,10.6-5.1,22-5.1,33.3c0,20.2,0,40.3,0,60.5c0,35.5,0,71,0,106.5     c0,42,0,84,0,126c0,40,0,79.9,0,119.9c0,29.4,0,58.9,0,88.3c0,17.4-1.9,37.6,3.6,54.2c6.6,19.9,20.2,37.2,38.9,47     c13.9,7.2,33.2,4,41-10.8c8-15.1,3.2-31.7-10.8-41c-4.6-3.1,5.3,5,1.4,1.1c-0.2-0.2-2.8-3.1-3-3.1c1.2,0,4.6,6.9,1.3,1.4     c-0.8-1.3-1.4-2.6-2-3.9c1,2.4,2,4.8,3,7.2c-1.3-3.2-2.2-6.4-2.7-9.9c0.4,2.7,0.7,5.3,1.1,8c-0.3-3.1-0.2-6,0.2-9.1     c-0.4,2.7-0.7,5.3-1.1,8c2.3-12.8,7.3-25.6,11-38c8.2-27.6,16.4-55.2,24.6-82.8c10-33.5,19.9-67.1,29.9-100.6     c8.6-29,17.2-58.1,25.9-87.1c4.1-13.7,8-27.5,12.2-41.1c0.5-1.5,1-2.9,1.6-4.4c-1,2.4-2,4.8-3,7.2c0.8-1.7,1.7-3.3,2.6-4.9     c2.1-3.7-2.2,2.9-2.3,2.8c-0.1-0.5,2-2.2,2.3-2.5c0.6-0.6,1.4-1.2,2-1.8c2.3-2.2-5.6,3.7-2.8,2.3c1.8-0.9,3.5-2.1,5.4-2.9     c-2.4,1-4.8,2-7.2,3c3-1.2,6.1-2,9.3-2.5c-2.7,0.4-5.3,0.7-8,1.1c6.1-0.6,12.3-0.3,18.4-0.3c13.5,0,27,0,40.4,0     c45,0,90,0,134.9,0c54.5,0,109,0,163.6,0c47.2,0,94.5,0,141.7,0c23,0,46,0.4,69,0c0.3,0,0.6,0,1,0c16.2,0,30-13.7,30-30     c0-26.9,0-53.9,0-80.8c0-15.7-13.8-30.7-30-30C796.8,306.4,783,318.9,783,335.7z"></path></g></g><g><g><path d="M894,452.7c-3.4,11.5-6.8,23.1-10.3,34.6c-8.2,27.7-16.4,55.3-24.6,83c-9.9,33.4-19.8,66.8-29.7,100.2     c-8.5,28.7-17.1,57.5-25.6,86.2c-4.1,13.7-8,27.4-12.2,41.1c-0.4,1.2-0.8,2.4-1.3,3.7c1-2.4,2-4.8,3-7.2c-0.9,2.1-2,4-3.1,5.9     c-2.8,4.9,4.8-5.1,0.1-0.5c-4.8,4.7,5.5-3,0.8-0.4c-1.8,1-3.5,2-5.3,2.9c2.4-1,4.8-2,7.2-3c-2.9,1.2-5.8,2-8.8,2.4     c2.7-0.4,5.3-0.7,8-1.1c-6.9,0.8-14.1,0.3-21.1,0.3c-15.5,0-31,0-46.5,0c-51,0-102.1,0-153.1,0c-61.8,0-123.6,0-185.3,0     c-53.2,0-106.4,0-159.6,0c-25.3,0-50.6,0.1-75.8,0c-2.5,0-5.1-0.2-7.6-0.5c2.7,0.4,5.3,0.7,8,1.1c-4.4-0.7-8.6-1.8-12.8-3.5     c2.4,1,4.8,2,7.2,3c-1-0.4-2-0.9-3-1.4c-2.5-1.7-1.7-1,2.5,2.1c-0.8-1.1-2.2-2.1-3.2-3c-1.5-1.7-1.3-1.4,0.5,0.8     c1.7,2.3,1.9,2.5,0.6,0.7c-1-1.7-2-3.3-2.8-5.1c1,2.4,2,4.8,3,7.2c-1.3-3.2-2.2-6.4-2.7-9.9c0.4,2.7,0.7,5.3,1.1,8     c-0.3-3.1-0.2-6,0.2-9.1c-0.4,2.7-0.7,5.3-1.1,8c2.3-12.8,7.3-25.6,11-38c8.2-27.6,16.4-55.2,24.6-82.8     c10-33.5,19.9-67.1,29.9-100.6c8.6-29,17.2-58.1,25.9-87.1c4.1-13.7,8-27.5,12.2-41.1c0.5-1.5,1-2.9,1.6-4.4c-1,2.4-2,4.8-3,7.2     c0.8-1.7,1.7-3.3,2.6-4.9c2.1-3.7-2.2,2.9-2.3,2.8c-0.1-0.5,2-2.2,2.3-2.5c0.6-0.6,1.4-1.2,2-1.8c2.3-2.2-5.6,3.7-2.8,2.3     c1.8-0.9,3.5-2.1,5.4-2.9c-2.4,1-4.8,2-7.2,3c3-1.2,6.1-2,9.3-2.5c-2.7,0.4-5.3,0.7-8,1.1c6.8-0.7,13.8-0.3,20.7-0.3     c15.5,0,30.9,0,46.4,0c51.4,0,102.8,0,154.2,0c62.1,0,124.2,0,186.3,0c53.5,0,107.1,0,160.6,0c25.6,0,51.1-0.2,76.7,0     c1.7,0,3.4,0.1,5.1,0.3c-2.7-0.4-5.3-0.7-8-1.1c3.2,0.5,6.2,1.2,9.2,2.4c-2.4-1-4.8-2-7.2-3c1.8,0.8,3.5,1.8,5.2,2.8     c1,0.6,3.8,2.8-0.4-0.4c-4.4-3.4-0.9-0.6-0.1,0.2c0.6,0.6,1.2,1.3,1.8,1.9c2.9,2.9-2.6-2.9-2.3-3c0.3-0.2,2.9,5.1,3.2,5.6     c-1-2.4-2-4.8-3-7.2c1.2,2.9,2,5.7,2.6,8.8c-0.4-2.7-0.7-5.3-1.1-8c0.4,3.2,0.4,6.2,0.1,9.4c0.4-2.7,0.7-5.3,1.1-8     C894.8,449.1,894.5,450.9,894,452.7c-4.2,15.1,5.2,33.3,21,36.9c15.9,3.6,32.4-4.8,36.9-21c7.7-28-4.1-57.7-28.7-73     c-10.2-6.3-22.4-9.1-34.3-9.2c-6.1,0-12.3,0-18.4,0c-30.7,0-61.3,0-92,0c-46.4,0-92.9,0-139.3,0c-51.2,0-102.3,0-153.5,0     c-45.3,0-90.7,0-136,0c-28.8,0-57.6,0-86.4,0c-4.9,0-9.7-0.1-14.6,0c-22.7,0.3-43.4,11.9-55.4,31.2c-3.6,5.8-5.8,12.2-7.7,18.7     c-9,30.4-18,60.8-27.1,91.1c-14.3,48.2-28.6,96.5-43,144.7c-9.9,33.3-19.8,66.5-29.6,99.8c-0.6,2.1-1.3,4.2-1.9,6.4     c-7.6,27.4,3.3,54.7,25.9,71.2c13.5,9.9,31,11.1,47.3,11.1c25,0,49.9,0,74.9,0c43.4,0,86.7,0,130.1,0c51,0,101.9,0,152.9,0     c47.7,0,95.4,0,143.1,0c33.7,0,67.4,0,101.1,0c8.1,0,16.2,0,24.3,0c1.3,0,2.6,0,3.9,0c29-0.5,53.2-19.2,62-46.7     c7.3-23,13.8-46.4,20.7-69.6c14-47.2,28-94.4,42-141.6c11.5-38.7,23-77.4,34.5-116.1c1.8-6,3.6-12.1,5.4-18.1     c4.5-15-5.4-33.4-21-36.9C914.7,428.1,898.7,436.6,894,452.7z"></path></g></g></g></svg>