<svg height='100px' width='100px'  fill="#4f4b4a" xmlns="http://www.w3.org/2000/svg" data-name="Layer 1" viewBox="0 0 24 24" x="0px" y="0px"><title>rounded</title><path d="M19.37171,12.0575l-1.21808-1.82715a.98362.98362,0,0,1-.159-.50885A7.00046,7.00046,0,0,0,11.00006,3a7.35607,7.35607,0,0,0-1.404.1366A6.99843,6.99843,0,0,0,7.00006,15.74V19a2,2,0,0,0,2,2h4a2,2,0,0,0,2-2,1,1,0,0,1,1-1,2,2,0,0,0,2-2V14.618a.99992.99992,0,0,1,.5528-.89441l.434-.217A1,1,0,0,0,19.37171,12.0575Zm-1.266.77166A1.989,1.989,0,0,0,17.00006,14.618V16a1.00114,1.00114,0,0,1-1,1,2.0023,2.0023,0,0,0-2,2,1.00114,1.00114,0,0,1-1,1h-4a1.00115,1.00115,0,0,1-1-1V15.21857L7.57251,14.92A5.99847,5.99847,0,0,1,9.78669,4.11823,6.38137,6.38137,0,0,1,11.00006,4a5.98019,5.98019,0,0,1,5.9953,5.76056A1.98362,1.98362,0,0,0,17.3216,10.785l1.218,1.82715ZM14.792,8.81348l-.54321.09588a3.475,3.475,0,0,0-.70819-1.23114l.35345-.42138a.50015.50015,0,0,0-.7666-.64258l-.351.41845a3.46453,3.46453,0,0,0-1.337-.48229V6a.5.5,0,0,0-1,0v.55042a3.46448,3.46448,0,0,0-1.337.48229l-.351-.41845a.50015.50015,0,0,0-.7666.64258l.35346.42138a3.47484,3.47484,0,0,0-.70819,1.23114l-.54322-.09588a.4998.4998,0,0,0-.17383.98437l.53717.09479c-.00109.0365-.0108.07062-.0108.10736a3.48053,3.48053,0,0,0,.25464,1.29675l-.46851.27063A.49976.49976,0,0,0,7.47605,12.5a.49284.49284,0,0,0,.24951-.06738l.47693-.27545a3.493,3.493,0,0,0,1.088.91223l-.1889.51849a.49985.49985,0,1,0,.93945.3418l.18354-.50373a3.48846,3.48846,0,0,0,1.42981,0l.18353.50373a.49985.49985,0,1,0,.93945-.3418l-.1889-.51849a3.49285,3.49285,0,0,0,1.088-.91223l.47693.27545a.49284.49284,0,0,0,.24951.06738.49976.49976,0,0,0,.25049-.93262l-.46851-.27063A3.48053,3.48053,0,0,0,14.43943,10c0-.03674-.0097-.07086-.0108-.10736l.53717-.09479a.49954.49954,0,0,0,.40527-.5791A.49362.49362,0,0,0,14.792,8.81348ZM10.93943,12.5a2.5,2.5,0,1,1,2.5-2.5A2.50286,2.50286,0,0,1,10.93943,12.5Z"></path></svg>