<svg height='100px' width='100px'  fill="#4f4b4a" xmlns="http://www.w3.org/2000/svg" data-name="Layer 9" viewBox="5 5 90 90" x="0px" y="0px"><title>expanded education line</title><path d="M93.34,26.16L51.65,5.38a3.78,3.78,0,0,0-3.31,0L6.66,26.16a2.71,2.71,0,0,0,0,5L18,36.8V53a4.88,4.88,0,0,0,2.52,4.35l26.1,14.9a7.14,7.14,0,0,0,6.93,0L70,62.81V70s0,0.06,0,.09a6,6,0,0,0-2,11.12l-3,7.54a1,1,0,0,0,.22,1.07l5,5.08a1,1,0,0,0,1.42,0l5-5.08a1,1,0,0,0,.22-1.07l-3-7.54a6,6,0,0,0-2-11.12S72,70,72,70V61.67l7.51-4.31A4.8,4.8,0,0,0,82,53V36.8l11.34-5.65A2.71,2.71,0,0,0,93.34,26.16ZM71,92.77l-3.83-3.89,2.61-6.62a13.73,13.73,0,0,0,2.44,0l2.61,6.62ZM75,76a4,4,0,0,1-2.53,3.71,3.9,3.9,0,0,1-2.95,0A4,4,0,1,1,75,76ZM52.56,70.52a5.1,5.1,0,0,1-5,0l-26.1-14.9A2.86,2.86,0,0,1,20,53V37.79l3.41,1.7,25,12.62a3.11,3.11,0,0,0,3,0h0L70,42.79V60.51ZM80,53a2.85,2.85,0,0,1-1.48,2.61L72,59.36V41.79l2.08-1L80,37.79V53ZM92.45,29.35L80.73,35.19l-0.18.06-7.34,3.68-1.28.64a1,1,0,0,0-.39-0.51l-21-13.74A1,1,0,1,0,49.49,27L70,40.44v0.1L50.76,50.13a1.77,1.77,0,0,1-1.52,0L24.33,37.72l-4.88-2.46-0.18-.06L7.55,29.35a0.73,0.73,0,0,1,0-1.41L49.24,7.17a1.77,1.77,0,0,1,1.52,0L92.45,27.95A0.73,0.73,0,0,1,92.45,29.35Z"></path></svg>