<svg height='100px' width='100px'  fill="#4f4b4a" xmlns="http://www.w3.org/2000/svg" xmlns:xlink="http://www.w3.org/1999/xlink" version="1.1" x="0px" y="0px" viewBox="60 60 900 900" style="enable-background:new 0 0 1024 1024;" xml:space="preserve"><g><g><g><path d="M798,335.7c0,26.9,0,53.9,0,80.8c5-5,10-10,15-15c-14.3,0-28.5,0-42.8,0c-35.4,0-70.8,0-106.2,0     c-45.8,0-91.6,0-137.4,0c-45.5,0-91,0-136.5,0c-34.5,0-69,0-103.5,0c-9.8,0-19.6,0-29.4,0c-7.6,0-15.2-0.3-22.7,1.9     c-16.5,4.8-28.8,17.7-33.9,33.9c-0.6,1.9-1.1,3.8-1.7,5.8c-3.3,11.1-6.6,22.2-9.9,33.3c-11.8,39.9-23.7,79.7-35.5,119.6     c-12.6,42.6-25.3,85.1-37.9,127.7c-5.8,19.6-12,39.2-17.5,58.9c-6,21.7,3,43.5,21.5,55.8c5-8.6,10.1-17.3,15.1-25.9     c-2.5-1.3-4.9-2.7-7.2-4.4c2.4,1.8-1.1-1.1-1.3-1.2c-0.9-0.8-1.7-1.6-2.5-2.5c-0.8-0.8-1.6-1.7-2.3-2.6c1.9,2.3-0.8-1.3-1-1.5     c-0.8-1.2-1.5-2.4-2.1-3.6c-0.4-0.8-0.9-1.7-1.3-2.5c0.6,1.4,0.5,1.3-0.1-0.4c-0.8-2.3-1.3-4.6-2-6.9c-1.2-4.2,0,2.6-0.3-1.8     c-0.1-1.5-0.2-3-0.2-4.5c0-0.1,0-0.2,0-0.4c0-2.5,0-5.1,0-7.6c0-13.8,0-27.7,0-41.5c0-50.9,0-101.8,0-152.7     c0-60.3,0-120.6,0-180.9c0-43.7,0-87.5,0-131.2c0-7.5-0.1-15.1,0-22.6c0-1.9,0.1-3.8,0.3-5.7c-0.4,3.4,0.3-1,0.4-1.4     c0.2-0.9,0.4-1.8,0.7-2.6c0.4-1.3,0.8-2.5,1.2-3.8c0.6-1.6,0.6-1.7,0-0.1c0.4-0.8,0.8-1.6,1.2-2.4c1-1.9,2.2-3.8,3.4-5.6     c2.3-3.4-2,1.8,0.9-1.1c0.9-0.9,1.8-1.9,2.7-2.8c0.9-0.9,1.9-1.8,2.9-2.6c-2.2,1.9,0,0,0.6-0.4c2.4-1.6,4.8-3,7.4-4.2     c-3,1.4,0.9-0.3,1.4-0.5c1.1-0.4,2.1-0.7,3.2-1c1.1-0.3,2.2-0.5,3.3-0.8c4.1-1-2.8,0,1.4-0.2c1.6-0.1,3.3-0.2,4.9-0.2     c2.5,0,5,0,7.5,0c47.3,0,94.6-0.5,142,0c0.5,0,3.4,0.3,1.9,0c-1.9-0.3,2.6,0.9,2.4,0.8c-2.7-1.2,2.1,1.7-0.1,0     c0.9,0.7,1.6,1.6,2.4,2.4c1.9,2.1,3.8,4.4,5.6,6.6c8.5,10,17.1,20,25.6,30c8.9,10.4,17.9,20.9,26.8,31.3c2.4,2.8,4.7,5.6,7.1,8.3     c6.6,7.6,15.9,12.1,26,12.7c9.4,0.6,19,0.1,28.5,0.1c23,0,46.1,0,69.1,0c59.2,0,118.4,0,177.6,0c22.1,0,44.3,0,66.4,0     c6.1,0,12.3,0,18.4,0c1.4,0,2.8,0,4.2,0c0.2,0,0.5,0,0.7,0c1,0,1.9,0,2.9,0.1c0.9,0.1,1.8,0.1,2.8,0.2c-3.4-0.4,2.1,0.5,2.7,0.7     c1.3,0.3,2.6,0.7,3.9,1.1c0.4,0.1,4.3,1.9,1.4,0.5c2,1,3.9,2,5.8,3.2c1.1,0.7,2.2,1.4,3.2,2.2c-2.6-2,0.7,0.7,1,1     c1.6,1.5,3.1,3.1,4.5,4.7c-2.1-2.5,0.5,0.8,0.8,1.2c0.7,1.1,1.4,2.2,2.1,3.4c0.6,1.2,1.2,2.3,1.8,3.5c-1.2-2.5-0.2-0.5,0,0.1     c0.9,2.6,1.5,5.1,2.2,7.8c1,4.1,0-2.8,0.2,1.4C797.9,332.9,798,334.3,798,335.7c0.1,7.8,6.8,15.4,15,15c8-0.4,15.1-6.6,15-15     c-0.3-24.7-14.4-48.4-37.2-58.8c-9.9-4.6-20.3-6.4-31.2-6.4c-14.9,0-29.7,0-44.6,0c-57.6,0-115.1,0-172.7,0     c-45.3,0-90.5,0-135.8,0c-2.9,0-6,0.3-8.8-0.1c2.8,0.3-1.7-0.7-2-0.8c2.7,1.2-2.1-1.7,0.1,0c-0.9-0.7-1.6-1.5-2.3-2.3     c-0.6-0.7-1.3-1.5-1.9-2.2c-2.9-3.4-5.8-6.8-8.7-10.2c-17.6-20.5-35.1-41-52.7-61.6c-8.1-9.4-18.3-15-31-15.1     c-8.2-0.1-16.4,0-24.6,0c-29.4,0-58.7,0-88.1,0c-22.7,0-48.4-3.1-69,8.5c-20.4,11.5-32.8,33.5-33.1,56.8c0,2,0,3.9,0,5.9     c0,35.6,0,71.3,0,106.9c0,59.9,0,119.8,0,179.7c0,56.1,0,112.3,0,168.4c0,25.4-0.3,50.8,0,76.2c0.3,24.1,13.6,46.7,35.1,57.9     c7.2,3.7,16.3,1.8,20.5-5.4c4.3-7.4,1.4-16-5.4-20.5c-2.4-1.6-1-0.7-0.5-0.2c-0.9-0.8-1.8-1.6-2.7-2.5c-0.2-0.2-2.2-2.5-1.2-1.2     c1,1.3-0.8-1.1-0.9-1.4c-0.6-1-1.2-2.1-1.8-3.2c0.3,0.6,0.7,2.4-0.2-0.5c-0.3-0.9-0.6-1.9-0.8-2.8c-0.1-0.4-0.5-4.6-0.4-1.9     c-0.1-2-0.2-4.1,0.1-6.1c-0.4,2.6,0.7-2.2,0.7-2.2c0-0.1,0.1-0.3,0.1-0.4c0.6-2.2,1.3-4.4,1.9-6.5c3.4-11.3,6.7-22.6,10.1-33.9     c11.7-39.5,23.4-79,35.2-118.5c12.4-41.9,24.9-83.8,37.3-125.7c6-20.1,11.6-40.4,17.9-60.4c0.1-0.5,0.3-1,0.4-1.4     c0.9-2.8,0.4-0.9,0.1-0.3c0.4-0.8,0.8-1.6,1.3-2.4c-0.1,0.2,2.4-3.5,1.2-1.9c-1,1.4,0.8-0.8,1-1.1c0.6-0.7,1.3-1.3,1.9-1.9     c0.5-0.5,1-0.9,1.5-1.3c-1.1,0.8-1.2,0.9-0.3,0.3c0.8-0.5,1.5-1,2.3-1.4c0.4-0.2,2.9-1.4,1.3-0.7c-1.9,0.9,2.2-0.7,2.1-0.7     c0.9-0.3,1.8-0.5,2.7-0.7c0.7-0.2,2.8-0.2,0.2-0.1c0.9,0,1.9-0.1,2.8-0.1c0,0,0,0,0.1,0c1.2,0,2.4,0,3.6,0c7.5,0,15.1,0,22.6,0     c31,0,61.9,0,92.9,0c43.8,0,87.5,0,131.3,0c46,0,91.9,0,137.9,0c38,0,76.1,0,114.1,0c19.9,0,39.7,0,59.6,0c0.9,0,1.8,0,2.7,0     c8.1,0,15-6.9,15-15c0-26.9,0-53.9,0-80.8c0-7.8-6.9-15.4-15-15C804.9,321.1,798,327.3,798,335.7z"></path></g></g><g><g><path d="M908.4,456.7c-6.7,22.4-13.3,44.8-20,67.3c-13.8,46.4-27.6,92.8-41.3,139.3     c-11.6,39.2-23.3,78.3-34.9,117.5c-2.1,7.1-4.3,14.2-6.3,21.3c-0.6,2.1-0.1,1.1-1.1,2.8c-0.7,1.2-1.4,2.4-2.2,3.6     c-1.5,2,1.7-1.3-1.3,1.3c-0.8,0.7-1.4,1.4-2.2,2.1c1.7-1.5-1.7,1.1-1.9,1.2c-3.4,2.1-6.1,2.7-10.2,2.8c-1.5,0-2.9,0-4.4,0     c-22.4,0-44.9,0-67.3,0c-41.4,0-82.9,0-124.3,0c-50,0-100,0-150,0c-48.1,0-96.2,0-144.3,0c-35.7,0-71.5,0-107.2,0     c-10.1,0-20.2,0-30.3,0c-2.5,0-5,0-7.5,0c-4.6,0-7.2-0.1-11.4-1.3c-1.3-0.4-2.6-0.8-3.9-1.3c-2.7-1,2.8,1.6-1.7-0.8     c-0.3-0.2-2.3-1.7-0.5-0.2c-0.7-0.6-1.5-1.3-2.2-2c-0.1-0.1-3.2-3.7-1.4-1.4c-0.6-0.8-1.1-1.6-1.6-2.4c-0.5-0.8-1-1.7-1.4-2.6     c1.2,2.4-0.4-1.3-0.6-1.9c-0.3-1.2-0.6-2.4-0.8-3.6c-0.4-2.5-0.2,3.2,0-1.2c0-1,0-2,0.1-3c0.2-4.6-0.4,1.3,0.2-1.4     c0.2-0.9,0.4-1.7,0.7-2.6c0.7-2.3,1.4-4.6,2.1-7c3.8-12.7,7.6-25.5,11.3-38.2c13.1-44.2,26.2-88.4,39.3-132.5     c12.8-43,25.5-85.9,38.3-128.9c3.4-11.4,6.8-22.8,10.2-34.2c0.7-2.3,1.3-4.8,2.2-7.1c-1,2.5,0.2-0.2,0.6-0.8c0.6-1,1.2-2,1.8-2.9     c-1.5,2.2,1.4-1.5,2.1-2.1c0.3-0.3,3.7-2.7,1.2-1.1c0.8-0.5,1.5-1,2.3-1.4c0.8-0.5,1.6-0.9,2.4-1.3c-2.7,1.3,0.9-0.2,1.5-0.4     c1.1-0.3,2.2-0.6,3.4-0.8c2.4-0.5-3.4-0.1,0.9,0c-0.2,0,1,0,1.4,0c0.1,0,0.2,0,0.3,0c16.7-0.2,33.5,0,50.2,0c38,0,76,0,113.9,0     c48.9,0,97.8,0,146.7,0c49.4,0,98.8,0,148.2,0c39.8,0,79.7,0,119.5,0c20.1,0,40.2,0,60.3,0c0.6,0,1.2,0,1.8,0c0.1,0,0.3,0,0.4,0     c0,0,0,0,0,0c3.4,0.1,0.1,0,2.1,0.1c2.5,0.1-3.2-0.9,0.8,0.1c0.9,0.2,1.8,0.4,2.6,0.6c-0.1,0,4,1.5,2,0.6c-2-0.8,1.8,1,1.8,1     c0.8,0.4,1.5,0.9,2.2,1.4c2.4,1.4,0.6,0.5,0.1,0c0.8,0.7,1.6,1.4,2.4,2.2c0.8,0.8,1.5,1.6,2.1,2.4c-1.7-2.2-0.3-0.4-0.1,0.1     c0.5,0.9,1.1,1.9,1.6,2.8c1.2,2.1-0.9-3.3,0.3,0.6c0.5,1.7,1,3.3,1.4,5.1c-0.8-3.4,0,0.6,0,1.3c0,0.9,0,1.8,0,2.7     c0,2.8,0,0.8,0.1,0.1C909.2,454,908.8,455.3,908.4,456.7c-2.1,7.6,2.6,16.7,10.5,18.5c7.9,1.8,16.2-2.4,18.5-10.5     c8.9-32.2-15.6-63-48.5-63.2c-6.1,0-12.3,0-18.4,0c-30.7,0-61.3,0-92,0c-46.4,0-92.9,0-139.3,0c-51.2,0-102.3,0-153.5,0     c-45.3,0-90.7,0-136,0c-28.8,0-57.6,0-86.4,0c-4.9,0-9.7-0.1-14.6,0c-17.3,0.3-33.3,9-42.4,23.8c-2.9,4.7-4.6,9.9-6.2,15.1     c-9,30.4-18,60.8-27.1,91.1c-14.3,48.2-28.6,96.5-43,144.7c-9.9,33.3-19.8,66.5-29.6,99.8c-0.6,2.1-1.3,4.2-1.9,6.4     c-5.7,20.5,1.9,41.8,19,54.3c11.5,8.4,26,9.1,39.7,9.1c25,0,49.9,0,74.9,0c43.4,0,86.7,0,130.1,0c51,0,101.9,0,152.9,0     c47.7,0,95.4,0,143.1,0c33.7,0,67.4,0,101.1,0c8.1,0,16.2,0,24.3,0c1.3,0,2.6,0,3.9,0c22.2-0.4,40.8-14.6,47.5-35.6     c7.3-23,13.8-46.4,20.7-69.6c14-47.2,28-94.4,42-141.6c11.5-38.7,23-77.4,34.5-116.1c1.8-6,3.6-12.1,5.4-18.1     c2.2-7.5-2.7-16.7-10.5-18.5C918.8,444.4,910.8,448.7,908.4,456.7z"></path></g></g></g></svg>