<svg height='100px' width='100px'  fill="#4f4b4a" xmlns="http://www.w3.org/2000/svg" xmlns:xlink="http://www.w3.org/1999/xlink" version="1.1" x="0px" y="0px" viewBox="12 12 75 75" style="enable-background:new 0 0 100 100;" xml:space="preserve">

  <path d="M81.9354,53.2935L77.3267,40.822C76.415,25.1728,63.4384,12.7697,47.5638,12.7678  c-16.4662,0.002-29.8152,13.3489-29.8152,29.8152c0.0041,4.6791,1.0667,10.2214,3.6185,15.3473  c2.419,4.8643,6.2206,9.3601,11.7308,12.1656v15.627c0,0.3965,0.161,0.787,0.4407,1.0667c0.2818,0.2818,0.6702,0.4427,1.0686,0.4427  h24.5445c0.3964,0,0.7869-0.1609,1.0666-0.4427c0.2818-0.2797,0.4428-0.6702,0.4428-1.0667v-8.7845h7.1845  c4.3089,0,7.7984-3.4917,7.8005-7.8004v-8.1023l3.2823-1.2115c2.0507-0.7607,3.3226-2.7009,3.3226-4.7696  C82.2513,54.4688,82.1487,53.8711,81.9354,53.2935z M77.8822,56.9925l-4.2685,1.5757c-0.5937,0.2194-0.9861,0.7829-0.9861,1.4169  v9.1528c-0.0041,2.6404-2.1413,4.7777-4.7818,4.7837h-8.6939c-0.3986,0-0.787,0.1589-1.0667,0.4407  c-0.2818,0.2818-0.4427,0.6702-0.4427,1.0686v8.7825H36.1168V69.1499c0-0.5876-0.3441-1.1249-0.8774-1.3705  c-5.2566-2.4291-8.853-6.5507-11.1714-11.1955c-2.3143-4.6349-3.3025-9.7808-3.3005-14.001c0-7.404,2.9966-14.0935,7.8488-18.9476  c4.8541-4.8502,11.5437-7.8468,18.9476-7.8488c14.3371-0.002,26.0479,11.266,26.7602,25.4219l0.0926,0.4487l4.6871,12.6828  c0.0866,0.2376,0.1269,0.477,0.1289,0.7145C79.2306,55.8937,78.7153,56.6846,77.8822,56.9925z"></path>

  <path d="M67.5026,34.4321c-0.8673,0-1.6985-0.5132-2.0486-1.3907c-0.3864-0.9679-0.0222-2.0889,0.8452-2.6544  c-0.4045-0.479-0.8634-0.9258-1.3786-1.3283c-0.5112-0.4004-1.0526-0.7365-1.614-1.0102c-0.3079,0.8894-1.1491,1.4792-2.0769,1.4792  c-0.2114,0-0.4287-0.0302-0.644-0.0946c-0.9962-0.3019-1.6483-1.2861-1.5477-2.3164c-1.2718,0.0341-2.5317,0.332-3.6929,0.8815  c0.6179,0.9781,0.3803,2.3023-0.6159,2.9885c-0.3743,0.2576-0.809,0.3845-1.2396,0.3845c-0.5595,0-1.115-0.2093-1.5336-0.6159  c-0.7989,1.0526-1.3343,2.2238-1.6181,3.4354c1.1512,0.1268,2.0367,1.139,1.9542,2.3445c-0.0725,1.0404-0.8855,1.8918-1.9119,2.0245  c0.312,1.2237,0.8754,2.3908,1.6824,3.4132c0.4246-0.4266,0.9922-0.6479,1.5638-0.6479c0.5293,0,1.0605,0.1892,1.4892,0.5795  c0.7688,0.7044,0.9278,1.8737,0.3904,2.7592c1.1874,0.5333,2.4513,0.7989,3.7112,0.8049c-0.1329-1.1491,0.6561-2.2379,1.8515-2.4271  l0.3341-0.0262c0.9076,0,1.7468,0.5736,2.0648,1.439c1.1068-0.5675,2.1131-1.3685,2.9422-2.3968  c-0.9801-0.6139-1.3404-1.9078-0.7406-2.9604c0.3964-0.6983,1.1451-1.1049,1.9158-1.1049c0.2295,0,0.4589,0.0362,0.6843,0.1107  c0.2535-1.2598,0.2374-2.5538-0.0362-3.7976C67.9937,34.3899,67.7462,34.4321,67.5026,34.4321z M63.045,37.6038  c-0.4467,0.7869-0.6702,1.6381-0.6882,2.4834c-0.312-0.0604-0.63-0.0907-0.9539-0.0907c-0.2657,0-0.5354,0.0222-0.8031,0.0624  c-0.8935,0.1409-1.6985,0.4992-2.3707,1.0103c-0.2696-0.5111-0.6299-0.9821-1.0747-1.3886c-0.65-0.5977-1.4309-1.0142-2.2722-1.2216  c0.2335-0.5333,0.3785-1.1109,0.4207-1.7146c0.0624-0.9016-0.1047-1.765-0.4548-2.5338c0.5675-0.1529,1.1049-0.4004,1.5958-0.7386  c0.7446-0.5131,1.3142-1.1833,1.6966-1.936c0.4669,0.3421,0.9942,0.6118,1.5718,0.7849c0.495,0.151,1.0043,0.2254,1.5175,0.2254  c0.3601,0,0.7123-0.0362,1.0545-0.1067c0.0241,0.5777,0.1429,1.1593,0.3663,1.7208c0.332,0.8332,0.8573,1.5416,1.5113,2.0869  C63.7212,36.6278,63.3408,37.0846,63.045,37.6038z"></path>

  <path d="M49.1346,26.8599c-0.1731-1.0686-0.5795-2.0991-1.2135-3.0108c-0.4186,0.3985-0.966,0.6037-1.5175,0.6037  c-0.4729,0-0.9479-0.1508-1.3503-0.4648c-0.8715-0.6803-1.0888-1.8838-0.5615-2.8176c-0.8393-0.318-1.7187-0.4729-2.5941-0.4729  c-0.2073,0-0.4147,0.008-0.6199,0.0262c0.2496,1.0404-0.2917,2.1373-1.3141,2.5498c-0.2717,0.1087-0.5494,0.161-0.8232,0.161  c-0.7667,0-1.4952-0.4025-1.8957-1.0807c-0.4146,0.338-0.799,0.7264-1.1431,1.1652c-0.3422,0.4407-0.626,0.9076-0.8554,1.3907  c1.0285,0.3059,1.7066,1.3222,1.5537,2.4149c-0.155,1.0928-1.0847,1.8817-2.1574,1.8938c0.1731,1.0686,0.5816,2.099,1.2136,3.0087  c0.4186-0.3965,0.966-0.6037,1.5174-0.6037c0.473,0,0.95,0.1529,1.3524,0.4669c0.8715,0.6801,1.0888,1.8836,0.5595,2.8155  c0.8392,0.318,1.7206,0.4749,2.5962,0.4749c0.2072,0,0.4125-0.008,0.6177-0.026c-0.2475-1.0425,0.2919-2.1373,1.3163-2.5499  c0.2696-0.1107,0.5493-0.161,0.8231-0.161c0.7648,0,1.4933,0.4025,1.8957,1.0807c0.4146-0.338,0.799-0.7264,1.1411-1.1652  c0.3442-0.4407,0.6279-0.9076,0.8553-1.3906c-1.0264-0.306-1.7046-1.3223-1.5516-2.415  C47.1322,27.6608,48.064,26.87,49.1346,26.8599z M43.9888,28.3331c-0.0624,0.4508-0.0645,0.8975-0.0122,1.3342  c-0.4407,0.0564-0.8733,0.1691-1.292,0.3382c-0.4246,0.171-0.8151,0.3925-1.1673,0.652c-0.2657-0.3481-0.5776-0.6681-0.9338-0.9479  c-0.3522-0.2737-0.7366-0.501-1.1452-0.6762c0.1671-0.4045,0.2878-0.8351,0.3502-1.29c0.0624-0.4487,0.0644-0.8956,0.012-1.3322  c0.4428-0.0564,0.8754-0.169,1.294-0.3382c0.4246-0.1731,0.8151-0.3923,1.1673-0.652c0.2636,0.3482,0.5756,0.6682,0.9338,0.9459  c0.3502,0.2756,0.7366,0.5031,1.1431,0.6782C44.1718,27.4495,44.0532,27.8802,43.9888,28.3331z"></path>

  <path d="M45.1082,47.405c0.0443-1.0565,0.8574-1.9379,1.8999-2.0788c-0.2516-1.0586-0.6621-2.0809-1.2216-3.0309  c-0.3905,0.2858-0.8493,0.4267-1.3061,0.4267c-0.6562,0-1.3082-0.2919-1.7469-0.8634c-0.644-0.8372-0.5896-2.0367,0.1188-2.8155  c-0.9016-0.6682-1.8737-1.1793-2.8839-1.5355c-0.2395,0.9881-1.127,1.6804-2.1353,1.6804l-0.483-0.0523  c-1.0324-0.2293-1.7609-1.1833-1.7187-2.2338c-1.0908,0.0665-2.1674,0.2938-3.1959,0.6783  c0.5213,1.0524,0.1269,2.3647-0.9599,2.9302c-0.3179,0.165-0.6621,0.2455-1.0042,0.2455c-0.6682,0-1.3243-0.3019-1.7489-0.8554  c-0.3905,0.3723-0.7607,0.7748-1.1029,1.2136c-0.34,0.4367-0.6439,0.8935-0.9096,1.3625c1.0766,0.4729,1.6181,1.7307,1.1491,2.8618  c-0.3442,0.8312-1.1673,1.3544-2.0366,1.3544l-0.4649-0.0502c-0.1228,1.0908-0.0825,2.1916,0.1188,3.2663  c0.2032-0.0604,0.4105-0.0886,0.6158-0.0886c0.9258,0,1.7991,0.5857,2.1011,1.5436c0.318,1.0082-0.1449,2.1172-1.0787,2.6042  c0.5917,0.8935,1.3222,1.7125,2.1896,2.4271c0.4186-0.626,1.115-0.9781,1.8334-0.9781c0.4024,0,0.8109,0.1107,1.1833,0.3461  c0.8916,0.5675,1.2498,1.7146,0.8494,2.6887c1.0223,0.3039,2.0748,0.4528,3.1234,0.4528h0.1126  c-0.1289-1.1692,0.6903-2.2641,1.9038-2.423l0.2818-0.0201c0.9439,0,1.8092,0.6199,2.0991,1.5355  c0.99-0.4307,1.9259-1.0102,2.7711-1.7348c-0.8512-0.8109-0.9297-2.1796-0.1006-3.0831c0.4246-0.4649,1.0223-0.7064,1.6221-0.7064  c0.4065,0,0.815,0.1107,1.1732,0.3382c0.4992-0.9942,0.8332-2.0447,1.0103-3.1094C45.9917,49.6268,45.0539,48.6287,45.1082,47.405z   M41.1355,51.1403c-0.6561,0.7144-1.0726,1.5698-1.2557,2.4633c-0.4126-0.1047-0.8452-0.161-1.288-0.161  c-0.2234,0-0.4488,0.0161-0.6762,0.0443c-0.958,0.1268-1.8274,0.5132-2.5418,1.0807c-0.3783-0.5233-0.8574-0.9841-1.4309-1.3504  c-0.7969-0.5071-1.7066-0.7888-2.6424-0.8171c0.0463-0.6419-0.0262-1.3001-0.2295-1.9441c-0.2898-0.9216-0.815-1.7166-1.4952-2.3263  c0.4487-0.463,0.815-1.0144,1.0706-1.6342c0.3723-0.8977,0.4709-1.8435,0.3382-2.747c0.6561-0.0665,1.3001-0.2556,1.8836-0.5616  c0.8593-0.4467,1.5435-1.1069,2.0205-1.8836c0.5354,0.3643,1.1432,0.632,1.8072,0.7789c0.3744,0.0824,0.7568,0.1247,1.1371,0.1247  c0.5655,0,1.113-0.0884,1.6262-0.2576c0.175,0.6179,0.4689,1.2115,0.8794,1.7469c0.5837,0.7607,1.3444,1.3322,2.2017,1.6743  c-0.2615,0.5857-0.4185,1.2297-0.4487,1.9018c-0.0423,0.97,0.1892,1.8937,0.6239,2.6968  C42.1237,50.2528,41.5843,50.6492,41.1355,51.1403z"></path>

</svg>