<svg height='100px' width='100px'  fill="#4f4b4a" xmlns="http://www.w3.org/2000/svg" xmlns:xlink="http://www.w3.org/1999/xlink" version="1.1" x="0px" y="0px" viewBox="60 60 900 900" style="enable-background:new 0 0 1024 1024;" xml:space="preserve"><g><g><g><path d="M888.3,319.6c0,25.3,0,50.7,0,76c0,56.2,0,112.4,0,168.6c0,57.3,0,114.5,0,171.8c0,29,0.2,58.1,0,87.1     c0,0.2,0,0.4,0,0.6c0,0.3,0,0.5,0,0.8c0,0.8-0.3,3.8,0.1,0.8c-0.2,1.8-0.8,3.5-1.2,5.3c-0.8,3.8,1.4-2-0.5,1.3     c-0.6,1.2-1.3,2.3-1.9,3.4c-0.2,0.5-1.6,2.4,0.1,0.2c-0.8,1-1.7,2-2.6,2.9c-0.9,0.9-1.9,1.8-2.9,2.6c2.6-2-0.9,0.4-1.3,0.6     c-0.8,0.4-1.5,0.8-2.3,1.2c-1.6,0.7-1.6,0.7-0.1,0c-0.8,0.3-1.7,0.6-2.6,0.8c-1.3,0.4-2.6,0.7-4,0.9c3.4-0.5-1.1-0.1-1.5-0.1     c0,0,0,0,0,0c-0.2,0-0.3,0-0.5,0c-0.8,0-1.6,0-2.4,0c-9.2,0-18.3,0-27.5,0c-40.5,0-81,0-121.5,0c-57.8,0-115.5,0-173.3,0     c-60.2,0-120.4,0-180.6,0c-47.8,0-95.6,0-143.5,0c-20.6,0-41.2,0.3-61.8,0c-0.7,0-4.9-0.4-1.7,0.1c-2.2-0.3-4.4-1-6.5-1.7     c3,1-0.8-0.4-1.2-0.6c-0.5-0.3-5-3.3-2.4-1.3c-1.7-1.3-3.2-2.9-4.7-4.5c-2.6-2.8,1,2.2-0.8-1.2c-0.6-1.2-1.3-2.3-1.9-3.4     c-1.8-3.4,0.4,2.4-0.5-1.3c-0.2-0.9-0.5-1.7-0.7-2.6c-0.1-0.6-0.5-4.7-0.3-1.4c-0.1-1.5-0.1-1.3-0.1-2.8c0-1.9,0-3.9,0-5.8     c0-13.4,0-26.8,0-40.1c0-51.3,0-102.7,0-154c0-59.7,0-119.4,0-179.1c0-38.6,0-77.2,0-115.8c0-2.9,0-5.8,0-8.7c0-0.2,0-0.4,0-0.5     c0-1,0.1-1.9,0.1-2.8c-0.2,3.3,0.2-0.8,0.3-1.4c0.3-1.3,0.7-2.6,1.1-3.9c-1,3,0.4-0.8,0.6-1.2c0.6-1.2,1.3-2.3,2.1-3.4     c-1.7,2.7,0.6-0.6,0.9-1c0.7-0.8,1.5-1.5,2.3-2.3c0.6-0.6,2.9-2,0.6-0.5c1.1-0.7,2.2-1.4,3.4-2.1c0.5-0.3,4.3-1.6,1.2-0.6     c1.5-0.5,3-1,4.5-1.3c0.8-0.2,3.7-0.3,0.7-0.2c2.4-0.1,0.4-0.1,2.8-0.1c0,0,0.1,0,0.1,0c0.2,0,0.4,0,0.6,0c0.9,0,1.7,0,2.6,0     c3.5,0,7,0,10.5,0c34,0,68.1,0,102.1,0c54.9,0,109.8,0,164.8,0c61,0,121.9,0,182.9,0c52.3,0,104.6,0,156.9,0     c28.5,0,57.1,0,85.6,0c1.6,0,3.3,0,4.9,0c1,0,2,0.1,2.9,0.1c-3.3-0.2,0.8,0.2,1.4,0.3c1.3,0.3,2.6,0.7,3.9,1.1     c-2.7-0.9-0.1-0.1,0.7,0.3c0.9,0.5,1.9,1.1,2.9,1.6c3.4,1.8-1.6-1.8,1.2,0.8c1,0.9,1.9,1.8,2.8,2.7c0.4,0.4,2.6,3.7,0.9,1     c0.5,0.7,1,1.5,1.4,2.2c0.7,1.1,1.3,2.3,1.8,3.5c-1.3-3.1,0.2,1,0.3,1.4c0.4,1.3,0.7,2.6,0.9,4     C887.9,314.6,888.3,319.2,888.3,319.6c0.2,7.8,6.8,15.4,15,15c8-0.4,15.2-6.6,15-15c-0.5-27.3-21.9-49.6-49.3-50.7     c-1.7-0.1-3.5,0-5.3,0c-9.9,0-19.8,0-29.7,0c-42,0-83.9,0-125.9,0c-59.2,0-118.4,0-177.6,0c-60.4,0-120.9,0-181.3,0     c-46.8,0-93.7,0-140.5,0c-13.2,0-26.5,0-39.7,0c-9.6,0-19.4-0.6-28.6,2.6c-20.7,7.2-34.3,26.4-34.7,48.3c0,2.6,0,5.1,0,7.7     c0,14.6,0,29.1,0,43.7c0,53.1,0,106.2,0,159.2c0,60,0,119.9,0,179.9c0,36.1,0,72.2,0,108.3c0,2.6-0.1,5.3,0.1,7.9     c1.8,26.8,23.8,47.5,50.6,47.9c5.2,0.1,10.4,0,15.6,0c35.7,0,71.5,0,107.2,0c56.2,0,112.4,0,168.6,0c61.8,0,123.6,0,185.4,0     c51.4,0,102.7,0,154.1,0c26,0,52,0,78,0c8,0,15.7-1.4,23.1-4.6c18.3-8,29.6-26.6,29.9-46.4c0.1-8.6,0-17.1,0-25.7     c0-47.1,0-94.2,0-141.2c0-61,0-122,0-183c0-44.7,0-89.4,0-134.1c0-6.6,0-13.3,0-19.9c0-7.8-6.9-15.4-15-15     C895.2,304.9,888.3,311.2,888.3,319.6z"></path></g></g><g><g><path d="M645.7,193.2c0,26.4,0,52.8,0,79.2c0,3.8,0,7.7,0,11.5c5-5,10-10,15-15c-33.7,0-67.4,0-101.1,0     c-53.2,0-106.5,0-159.7,0c-12.2,0-24.4,0-36.6,0c5,5,10,10,15,15c0-26.7,0-53.5,0-80.2c0-3.5-0.1-6.9,0-10.4     c0-0.7,0.1-1.4,0.1-2.1c0-1.7,0,0.3-0.1,0.6c0.2-0.6,0.3-1.3,0.5-2c0.1-0.6,0.4-1.3,0.6-1.9c-0.7,2.4-0.4,0.6,0,0     c0.3-0.6,0.6-1.1,0.9-1.7c0.1-0.3,1.7-2.5,0.7-1.2c-0.8,1.1,1.8-1.8,2.3-2.3c1.7-1.8-1.2,0.4,1.1-0.8c0.8-0.4,1.5-0.9,2.3-1.3     c0.2-0.1,2.2-0.8,0.6-0.3c-1.6,0.6,0.5-0.1,0.7-0.1c0.9-0.1,1.7-0.4,2.6-0.6c-2.6,0.6,0.7,0,2,0c0.8,0,1.6,0,2.4,0     c3.3,0,6.7,0,10,0c28.7,0,57.5,0,86.2,0c33.7,0,67.3,0,101,0c10.7,0,21.3,0,32,0c2.4,0,4.8,0,7.2,0c0.7,0,1.5,0,2.2,0     c2.7,0.1-1.2-0.6,1.4,0.2c0.8,0.3,1.7,0.5,2.5,0.7c-0.2-0.1-2.1-1-0.6-0.3c1.4,0.7,2.7,1.4,3.9,2.3c-2.2-1.5,0.7,0.7,1.4,1.4     c0.5,0.5,0.9,0.9,1.3,1.4c-0.5-0.6-1.2-2.2-0.1,0.1c0.6,1.2,1.3,2.2,1.8,3.4c-1-2.4-0.1,0.5,0.2,1.4c0.8,2.5,0.2,0.8,0.1,0     C645.7,191.3,645.7,192.2,645.7,193.2c0.2,7.8,6.8,15.4,15,15c8-0.4,15.2-6.6,15-15c-0.6-24.9-20.4-43.5-45.1-43.6     c-8,0-16,0-24,0c-33.2,0-66.4,0-99.6,0c-32,0-64,0-96,0c-6.3,0-12.6-0.1-18.9,0c-24.9,0.4-43.7,20.3-43.8,45     c-0.1,28.9,0,57.8,0,86.7c0,0.9,0,1.8,0,2.6c0,8.1,6.9,15,15,15c33.7,0,67.4,0,101.1,0c53.2,0,106.5,0,159.7,0     c12.2,0,24.4,0,36.6,0c8.1,0,15-6.9,15-15c0-26.4,0-52.8,0-79.2c0-3.8,0-7.7,0-11.5c0-7.8-6.9-15.4-15-15     C652.6,178.5,645.7,184.7,645.7,193.2z"></path></g></g><g><g><path d="M888.3,319.6c0,29.8,0,59.7,0,89.5c0,11.6,0.7,23.5-0.5,35.1c-0.2,2.4,0.4-2.3,0,0.1     c-0.1,0.7-0.2,1.3-0.3,2c-0.3,1.8-0.7,3.5-1.2,5.3c-0.9,3.4-2,6.8-3.3,10.1c1-2.6-0.5,1-0.9,1.8c-0.7,1.4-1.4,2.7-2.1,4.1     c-1.7,3-3.6,5.9-5.7,8.7c1.6-2.2-0.8,0.9-1.3,1.5c-1,1.1-2,2.3-3.1,3.4c-2.4,2.5-5,4.8-7.7,7c2.1-1.7-0.9,0.6-1.7,1.1     c-1.3,0.9-2.5,1.7-3.8,2.5c-3,1.8-6.1,3.4-9.3,4.9c2.5-1.1-1.1,0.4-1.9,0.7c-1.5,0.5-2.9,1-4.4,1.4c-3.5,1-7,1.8-10.5,2.3     c2.9-0.5-1.2,0.1-2.1,0.2c-1.6,0.1-3.2,0.2-4.9,0.2c-0.6,0-1.1,0-1.7,0c-2.3,0-4.6,0-6.9,0c-12.1,0-24.2,0-36.3,0     c-38.1,0-76.2,0-114.2,0c-25.3,0-50.8-1-76.1,0c-0.4,0-0.8,0-1.2,0c5,5,10,10,15,15c0-8.1,0-16.1,0-24.2c0-8.9,1.3-19.7-1.6-28.2     c-4.9-14.2-17.8-22.1-32.5-22.1c-6.6,0-13.2,0-19.9,0c-21.9,0-43.7,0-65.6,0c-16.4,0-37.6-3.3-50.5,9c-10.8,10.2-9.8,24-9.8,37.5     c0,9.3,0,18.7,0,28c5-5,10-10,15-15c-37.7,0-75.3,0-113,0c-40.5,0-81,0.2-121.4,0c-0.4,0-0.8,0-1.3,0c-2.5,0-5.1-0.2-7.6-0.4     c-0.6,0-2.9-0.4-0.1,0c-1.8-0.3-3.6-0.6-5.3-1c-4.3-1-8.6-2.3-12.7-4c2.7,1.1,0,0-0.6-0.3c-1-0.5-2-1-2.9-1.5     c-2.3-1.2-4.6-2.5-6.8-4c-1.1-0.7-2.1-1.5-3.2-2.2c-0.5-0.3-2.2-1.7-0.1,0c-1.7-1.4-3.3-2.8-4.9-4.3c-1.7-1.6-3.4-3.3-5-5.1     c-0.7-0.8-1.4-1.6-2.1-2.5c-1.1-1.3-1.1-1.3-0.1,0c-0.4-0.5-0.8-1-1.1-1.6c-2.6-3.8-5-7.7-7-11.8c-0.4-0.8-0.7-1.6-1.1-2.4     c1.4,3.1-0.3-0.9-0.5-1.3c-0.9-2.5-1.7-5.1-2.4-7.6c-0.6-2.2-1-4.4-1.4-6.6c-0.9-4.3,0.1,3-0.2-1.4c-0.1-0.9-0.2-1.8-0.2-2.7     c-0.1-2-0.2-4.1-0.2-6.1c0-2.7,0-5.3,0-8c0-11.3,0-22.6,0-33.9c0-23.3,0-46.7,0-70c0-0.9,0-1.7,0-2.6c0-0.2,0-0.3,0-0.5     c0-0.5,0-1.9,0-1.4c0.2-1.8,0.1-1.9-0.1-0.1c0.1-0.9,0.3-1.8,0.5-2.7c0.2-0.9,0.5-1.7,0.7-2.6c1-3.9-1.4,2.1,0.5-1.3     c0.5-0.9,3.7-5.9,1.9-3.6c1.3-1.7,2.9-3.2,4.5-4.7c2.8-2.6-2.2,1,1.2-0.8c1.2-0.6,2.3-1.3,3.4-1.9c3.4-1.8-2.4,0.4,1.3-0.5     c0.9-0.2,1.7-0.5,2.6-0.7c0.6-0.1,4.7-0.4,1.4-0.3c0.9,0,1.9-0.1,2.8-0.1c0.1,0,0.2,0,0.2,0c0.6,0,1.2,0,1.8,0c22,0,44,0,66,0     c44.9,0,89.8,0,134.6,0c55.5,0,110.9,0,166.4,0c54.7,0,109.4,0,164,0c41.9,0,83.9,0,125.8,0c17.4,0,34.8-0.3,52.1,0     c0,0,0,0,0.1,0c2.5,0,0.3,0,2.8,0.1c-3.3-0.2,0.8,0.2,1.4,0.3c0.9,0.2,1.7,0.5,2.6,0.7c3.9,1-2.1-1.4,1.3,0.5     c0.9,0.5,5.9,3.7,3.6,1.9c1.7,1.3,3.2,2.9,4.7,4.5c2.6,2.8-1-2.2,0.8,1.2c0.4,0.8,0.9,1.5,1.3,2.3     C887.4,312.7,888.2,316.6,888.3,319.6c0.2,7.8,6.8,15.4,15,15c8-0.4,15.2-6.6,15-15c-0.5-24.4-18-46.3-42.6-49.9     c-3.8-0.6-7.3-0.8-11.1-0.8c-8.3,0-16.6,0-24.9,0c-36.9,0-73.9,0-110.8,0c-53.5,0-107.1,0-160.6,0c-57.6,0-115.2,0-172.8,0     c-49.1,0-98.2,0-147.3,0c-28.1,0-56.1,0-84.2,0c-2.3,0-4.5,0-6.8,0c-13,0.1-24.9,4.6-34.8,13.1c-12,10.4-16.8,25.7-16.8,41.1     c0,10,0,20.1,0,30.1c0,25.2,0,50.4,0,75.5c0,11.7,0.7,23.4,4.2,34.6c6.5,21,20,38.9,38,51.4c15.7,11,35.1,16.5,54.2,16.7     c3.9,0,7.8,0,11.8,0c22,0,43.9,0,65.9,0c49.3,0,98.6,0,147.8,0c3.1,0,6.3,0,9.4,0c8.1,0,15-6.9,15-15c0-14.3,0.9-28.8,0-43.1     c-0.1-2.4-0.1,2.4,0.1,0.1c0.1-2.1-1,1.9-0.1,0.1c0.2-0.4,1.4-2.7,0.6-1.1c-0.9,1.7,1.6-0.8-0.1,0.1c-1.7,0.9,0.7-0.4,1.1-0.6     c1.7-0.8-0.7,0.2-0.7,0.3c0.2,0.2,2.2-0.4-0.2-0.2c0.1,0,0.9-0.1,1.4-0.1c1.1,0,2.3,0,3.4,0c6.6,0,13.2,0,19.7,0     c20.6,0,41.2,0,61.7,0c7.8,0,15.6,0,23.4,0c2.1,0,4.1,0,6.2,0c0.4,0,0.8,0,1.2,0c0.5,0,1,0,1.5,0.1c-0.3,0-2.2-0.4-0.6,0.1     c1,0.3,0.9,0.2-0.5-0.3c0.4,0.2,0.8,0.4,1.1,0.7c-0.2-1-1.2-1.2,0,0.1c1,1.1,1.2,1.3,0.5,0.5c-0.7-0.8-0.6-0.6,0.3,0.7     c-0.1-0.2-0.2-0.4-0.2-0.6c-0.4-1-0.3-0.7,0.1,0.7c0.4-0.5,0-2.1,0,0.1c0,0.8,0,1.5,0,2.3c0,4.8,0,9.7,0,14.5     c0,8.5,0,17.1,0,25.6c0,8.1,6.9,15,15,15c21.9,0,43.8,0,65.7,0c39.1,0,78.1,0,117.2,0c13.7,0,27.5,0,41.2,0     c11.7,0,23.1-0.1,34.6-2.9c29-7.2,53.4-28.5,64.9-55.9c6.9-16.3,7.7-32.9,7.7-50.2c0-33.5,0-66.9,0-100.4c0-0.8,0-1.6,0-2.4     c0-7.8-6.9-15.4-15-15C895.2,304.9,888.3,311.2,888.3,319.6z"></path></g></g><g><g><path d="M572,474c0,28.9,0.1,57.9,0,86.8c0,1.2-0.1,2.1,0,0.8c0.2-2.2-1,2-0.1,0.1c0.9-1.9-1.5,1.7,0,0.1     c1.1-1.2-0.4,0.4-0.5,0.5c-2.5,2.5-0.1,0.1,0,0.1c-0.4,0.2-0.8,0.4-1.1,0.7c0.4-0.2,0.8-0.3,1.1-0.5c-0.1,0.4-2.3,0.5,0,0.3     c-0.7,0.1-1,0.1-1.4,0.1c-1.1,0-2.3,0-3.4,0c-6.7,0-13.4,0-20.2,0c-20.7,0-41.5,0-62.2,0c-7.8,0-15.5,0-23.3,0     c-1.9,0-3.9,0-5.8,0c-0.3,0-0.6,0-0.9,0c-3,0.1,1.2,0-0.6-0.1c-2.1-0.1,1.9,1,0.1,0.1c-2.6-1.3-0.4-0.8-0.5-0.2     c0,0.2-2.3-3-0.1,0.2c-0.5-0.7-0.9-1.4-1.3-2.2c1,2,0.6,0.1,0.2,0c0.2,0.1,0.1,3.7,0.1,0.1c0-0.3,0-0.6,0-0.9c0-2.3,0-4.7,0-7     c0-9,0-18,0-27c0-16.9-0.2-33.8,0-50.7c0-0.3,0-0.7,0-1c0-0.2,0-1.1,0.1-1.3c-0.3,4.1,0,0,0.2,0.2c0.2,0.2-1.1,2.2,0,0.1     c1.9-3.3-0.5,1.5,0.3-0.4c0.7-1.7-1.6,1.1-0.1,0c0.4-0.3,2.6-1.7,1-0.6c-1.6,1.1,1.9,0-0.1,0c-1.3,0-0.6,0,0.6,0     c0.3,0,0.6,0,0.9,0c5.2-0.1,10.5,0,15.7,0c33.1,0,66.1,0.3,99.2,0c2.1,0,0.7-0.5,0.2,0c0.2,0.1,0.4,0.1,0.6,0.2     c1,0.3,0.9,0.2-0.5-0.3c0.2-0.1,2.8,1.9,0.2-0.1c0.5,0.4,1.1,0.9,1.4,1.4c1,1.5-0.1-1.7,0,0.1c0.1,2-0.6-2,0,0.1     C572.6,475.6,571.8,469.7,572,474c0.3,7.8,6.7,15.4,15,15c7.9-0.4,15.3-6.6,15-15c-0.7-18.3-14.7-31.9-33-32.1     c-5.9-0.1-11.7,0-17.6,0c-21.9,0-43.7,0-65.6,0c-8.4,0-16.9,0-25.3,0c-8.3,0-16.4,0.3-23.7,5.1c-11.2,7.2-14.8,18.9-14.8,31.5     c0,8.7,0,17.5,0,26.2c0,18.4-0.2,36.7,0,55.1c0.2,17.9,13.3,32.3,31.4,33.1c4.1,0.2,8.1,0,12.2,0c21.1,0,42.1,0,63.2,0     c13.7,0,27.5,0.5,41.2,0c18.5-0.6,31.9-14.9,32.1-33.2c0.1-7.2,0-14.4,0-21.6c0-20,0-40,0-60c0-1.3,0-2.7,0-4     c0-7.8-6.9-15.4-15-15C578.9,459.4,572,465.6,572,474z"></path></g></g></g></svg>